PathFileType	4	(X/Y/Z)	Walk4.trc
DataRate	CameraRate	NumFrames	NumMarkers	Units	OrigDataRate	OrigDataStartFrame	OrigNumFrames
200.000000	200.000000	8	58	mm	200.000000	325	550
Frame#	Times		RBHD		C7		RASI		RACR1		RUA1		RElbow		RFA1		RWRU		RCAR		LFA1		RTH2		RTH3		RBack		LTH2		LElbowM		RLFC		RTB1		RTB3		LTH3		RTH1		RTH4		RMT1		RMT5		LElbow		RTB2		LTH4		LACR1		RTB4		LWRR		LWRU		RMMAL		CLAV		LASI		LPSI		LTB1		LBHD		RPSI		LLFC		T10		RWRR		LFHD		LTB3		LCAR		LTH1		LTB4		RFHD		LMT1		LCAL		RToe		LMMAL		RElbowM		LMT5		RLMAL		LLMAL		LTB2		LToe		LUA1		RCAL
			X1	Y1	Z1	X2	Y2	Z2	X3	Y3	Z3	X4	Y4	Z4	X5	Y5	Z5	X6	Y6	Z6	X7	Y7	Z7	X8	Y8	Z8	X9	Y9	Z9	X10	Y10	Z10	X11	Y11	Z11	X12	Y12	Z12	X13	Y13	Z13	X14	Y14	Z14	X15	Y15	Z15	X16	Y16	Z16	X17	Y17	Z17	X18	Y18	Z18	X19	Y19	Z19	X20	Y20	Z20	X21	Y21	Z21	X22	Y22	Z22	X23	Y23	Z23	X24	Y24	Z24	X25	Y25	Z25	X26	Y26	Z26	X27	Y27	Z27	X28	Y28	Z28	X29	Y29	Z29	X30	Y30	Z30	X31	Y31	Z31	X32	Y32	Z32	X33	Y33	Z33	X34	Y34	Z34	X35	Y35	Z35	X36	Y36	Z36	X37	Y37	Z37	X38	Y38	Z38	X39	Y39	Z39	X40	Y40	Z40	X41	Y41	Z41	X42	Y42	Z42	X43	Y43	Z43	X44	Y44	Z44	X45	Y45	Z45	X46	Y46	Z46	X47	Y47	Z47	X48	Y48	Z48	X49	Y49	Z49	X50	Y50	Z50	X51	Y51	Z51	X52	Y52	Z52	X53	Y53	Z53	X54	Y54	Z54	X55	Y55	Z55	X56	Y56	Z56	X57	Y57	Z57	X58	Y58	Z58

325	1.625	-26.259	1584.4	386.67	-64.728	1446.5	322.93	14.73	947.23	454.82	8.784	1399.9	461.72	-5.4642	1217.5	558.96	-19.311	1089.7	604.2	91.055	982.99	609.65	151.12	870.64	591.7	217.48	852.5	590.65	-123.78	987.93	5.6514	-4.048	647.52	448.42	-83.244	557.65	466.76	-131.67	1351.7	425.13	126.2	706.53	134.05	-198.34	1130.1	129.97	-104.52	453.83	447.74	-98.211	359.14	361.05	-155.52	178.04	353.35	106.8	592	125.87	-55.391	742.82	495.1	-68.244	648.51	484.88	-92.46	36.952	307.58	-117.58	32.488	398.15	-187.53	1130.7	51.239	-130.66	266.34	431.45	61.936	669.06	109.89	-46.846	1434.2	144.64	-123.9	269.8	359.17	-73.445	879.58	37.338	-151.33	871.31	13.823	-213.56	101.29	306.61	64.945	1361.2	296.89	11.262	949.87	148.36	-161.74	965.3	244.15	195.26	399.94	197.53	-25.889	1586.9	247.95	-163.52	970.78	349.09	140.46	486.06	144.57	-168.71	1138.7	305.29	204.2	912.44	552.15	158.46	1596.2	272.15	172.14	216.77	216.56	-85.012	825.94	-8.8167	15.614	755.37	105.69	181.94	308.5	207.5	159.52	1600.7	353.8	263.55	63.236	254.45	61.561	49.606	260.31	-35.155	24.449	326.53	143.03	114.14	283.22	-42.495	1049.8	515.61	229.17	51.999	180.25	-234.47	87.474	395.93	97.202	93.452	205.2	141.73	306.59	147.36	298.74	75.991	227.77	-131.84	1250.8	58.626	-293.95	44.606	356.52
326	1.63	-19.583	1583.7	386.16	-58.102	1445.7	322.7	20.756	946.29	454.82	15.372	1399.3	461.48	1.6289	1217.1	559.14	-11.189	1089.1	604.8	100.32	983.89	609.75	161.67	872.67	591.17	228.14	855.24	590.26	-119.97	986.77	5.8959	0.028207	646.28	448.5	-79.681	557.08	466.52	-125.09	1350.9	424.83	132.28	705.42	134.51	-192.43	1129.4	130.44	-101.6	453.48	447.53	-96.099	358.84	360.78	-154.9	178.18	352.91	112.79	591.02	126.51	-50.676	742.17	495.03	-63.675	647.9	484.77	-92.398	36.918	307.5	-117.6	32.506	398.04	-181.99	1129.7	52.026	-129.27	266.17	431.45	68.46	668.04	109.7	-40.351	1433.2	144.44	-122.24	269.51	359.39	-70.473	877.8	36.938	-148.47	870.53	13.857	-213.13	101.69	306.44	71.516	1360.3	296.73	18.214	948.94	148.25	-155.4	964.57	243.51	203.26	400.55	198.13	-19.213	1585.7	247.46	-157.45	969.99	348.6	145.96	484.6	145.35	-162	1137.8	305.06	214.21	915.24	551.75	164.94	1595.6	271.6	187.5	216.24	216.32	-82.57	824.26	-9.1972	22.027	754.55	105.56	193.53	308.41	207.77	165.85	1600.3	353.06	285.11	64.886	254.22	83.067	45.803	259.33	-35.094	24.428	326.43	162.28	112.51	282.35	-34.028	1049.2	516.21	250.91	52.067	180.1	-234.38	88.13	395.62	117.54	90.203	204.41	153.57	305.2	147.24	320.35	78.173	227.73	-125.92	1249.7	58.637	-293.84	45.357	356.25
327	1.635	-12.838	1582.8	385.84	-51.481	1444.7	322.46	26.704	945.32	454.79	21.985	1398.7	461.29	8.842	1216.7	559.09	-3.2916	1088.9	605.17	109.43	984.85	609.7	172.51	874.55	591	239.07	858.07	589.49	-115.79	985.37	5.8441	4.2719	645.46	448.57	-75.927	556.67	466.51	-118.42	1350.2	424.84	138.62	704.08	135.02	-186.11	1128.7	131.2	-99.198	453.28	447.46	-94.018	358.47	360.92	-154.27	178.12	352.7	118.82	589.78	126.99	-45.519	741.52	494.9	-59.345	647.43	484.72	-92.298	36.916	307.45	-117.63	32.47	397.83	-176.21	1129.1	52.615	-127.75	265.92	431.4	74.737	667.1	109.67	-33.621	1432.3	144.15	-120.94	269.47	359.04	-67.249	876.18	36.782	-145.43	869.35	14.269	-212.79	102.13	306.37	77.837	1359.4	296.67	25.175	947.9	148.06	-149.12	963.88	242.82	210.49	401.09	198.67	-12.907	1584.6	246.8	-151.44	969.2	348.03	151.3	483.04	146.09	-155.76	1136.8	304.71	223.95	917.8	551.18	171.38	1594.8	270.84	202.64	216.2	215.86	-80.024	822.63	-9.6838	28.482	753.72	105.21	204.7	308.33	207.94	172.46	1599.7	352.29	306.27	67.032	254.12	104.37	42.796	258.01	-35.053	24.409	326.41	181.34	111.29	281.36	-25.551	1048.5	516.66	272.49	52.559	179.92	-234.28	88.851	395.33	137.8	87.382	203.57	165.36	304.09	147.27	341.38	80.575	227.91	-120.04	1248.7	59.069	-293.87	46.158	355.92
328	1.64	-6.225	1581.9	385.14	-44.825	1443.9	322.02	33.041	944.18	454.64	28.713	1397.9	460.99	15.877	1216.2	559.19	4.348	1088.5	605.58	118.48	985.9	609.8	182.84	876.2	590.46	249.62	860.8	588.82	-111.77	984.22	6.0035	8.6297	644.63	448.49	-72.124	556.21	466.45	-111.66	1349.5	424.54	144.63	702.61	135.54	-179.63	1127.5	132.2	-96.632	453.03	447.35	-91.624	357.98	360.8	-153.15	178.13	352.62	124.59	588.44	127.47	-40.711	740.96	494.89	-55.278	646.87	484.61	-92.208	36.897	307.43	-117.62	32.535	397.95	-170.38	1128.3	53.116	-126.34	265.88	431.28	81.006	665.97	109.68	-27.224	1431	143.73	-119.42	269.31	358.72	-64.004	874.49	36.413	-142.31	868.27	14.759	-212.39	102.46	306.19	84.744	1358.4	296.43	31.829	947.07	148.17	-142.83	962.82	242.35	217.91	401.5	199.12	-6.3737	1583.3	246.17	-145.3	968.37	347.33	156.49	481.4	146.82	-149.26	1136.1	304.36	233.81	920.3	550.95	177.59	1593.8	269.89	217.22	216.07	215.59	-77.599	821.15	-9.9954	35.053	752.69	104.83	215.75	308.6	208.02	179.13	1598.9	351.51	326.99	69.329	254.09	125.34	39.979	256.56	-35.019	24.316	326.37	200	110.53	280.72	-17.388	1047.7	517.15	293.91	53.507	179.73	-233.97	89.473	395.03	157.48	85.346	202.57	177.01	303.08	147.18	362.16	83.113	228.11	-113.91	1247.7	59.259	-293.81	46.908	355.68
329	1.645	0.46996	1580.9	384.52	-37.96	1442.8	321.76	39.242	943.21	454.51	35.615	1397.2	460.44	23.054	1215.9	559.11	11.954	1088.1	605.93	127.35	986.61	609.71	192.85	877.69	590.29	260.03	863.38	588.18	-107.34	982.97	6.1436	13.021	643.65	448.38	-68.511	555.73	466.39	-104.84	1348.6	424.53	150.82	701.02	136.06	-173.42	1126.6	133.27	-93.669	452.71	447.32	-89.322	357.42	360.63	-151.8	178.17	352.58	130.1	586.99	128	-35.832	740.27	494.78	-50.83	646.31	484.63	-92.141	36.877	307.4	-117.67	32.352	397.71	-164.6	1127.3	53.737	-124.95	265.7	431.38	87.06	664.63	109.82	-20.126	1430	143.41	-117.87	269.12	358.32	-60.494	872.46	36.157	-139.31	867.16	14.842	-211.96	102.76	305.99	91.364	1357.3	296.06	38.783	946.16	148.11	-136.14	961.9	242.03	225.17	401.69	199.59	0.28744	1582.1	245.46	-139.06	967.46	346.68	161.84	479.72	147.52	-142.5	1135.1	303.8	243.24	922.69	550.42	184.31	1593	269.13	231.95	216.54	214.85	-75.152	819.78	-10.341	41.615	751.51	104.66	226.83	308.8	208.14	185.66	1598.4	350.73	347.03	71.629	254.47	145.96	37.626	255.48	-34.931	24.295	326.31	218.37	110.28	279.66	-9.7084	1046.9	517.67	314.73	54.937	179.58	-233.6	89.945	394.73	177.03	83.753	201.34	188.01	302.15	147.03	382.17	85.728	228.66	-107.33	1246.5	59.269	-293.66	47.696	355.4
330	1.65	6.9473	1579.9	383.69	-31.22	1442	321.21	45.438	942.11	454.43	42.405	1396.3	459.96	30.181	1215.2	559.13	19.664	1087.8	605.98	136.11	987.4	609.75	202.75	879.5	590.3	270.06	865.88	587.6	-102.89	981.6	6.0997	17.442	642.77	448.22	-65.036	555.26	466.27	-98.126	1347.9	424.46	156.71	699.36	136.61	-167.29	1125.9	133.74	-90.364	452.43	447.34	-87.112	357.13	360.67	-151.07	178.2	352.59	135.4	585.42	128.42	-31.019	739.7	494.77	-46.425	645.74	484.57	-92.051	36.839	307.34	-117.69	32.33	397.7	-158.73	1126.5	54.198	-123.44	265.66	431.22	92.982	663.11	109.85	-13.814	1428.5	143.06	-116.18	269.02	358.13	-56.779	870.75	35.665	-136.25	866.39	14.665	-211.49	103.09	305.9	98.053	1356.2	295.72	45.555	945.04	147.87	-129.54	960.85	241.29	232.06	402.06	200.15	6.6805	1580.8	244.74	-132.56	966.47	346.03	167.48	477.85	148.22	-135.71	1134.3	303.01	252.44	924.96	550.09	190.86	1592.2	268.34	246.36	217.27	214.3	-72.427	817.91	-10.771	48.193	750.49	104.43	237.24	309.17	208.08	192.22	1597.8	349.97	366.51	74.06	255.05	166.33	35.756	254.15	-34.912	24.291	326.29	236.39	109.93	278.62	-2.1995	1046.2	518.2	335.09	57.048	179.55	-233.28	90.408	394.36	196.3	82.566	200.34	199.2	301.33	146.77	401.58	88.646	229.32	-101.41	1245.5	59.285	-293.51	48.502	355.42
331	1.655	13.422	1579	383.09	-24.55	1441.1	320.47	51.495	941	454.24	49.192	1395.6	459.64	37.262	1214.6	559.05	27.696	1087.2	606.44	144.91	988.25	609.67	212.76	881.15	589.56	279.94	868.12	587.24	-98.367	980.38	6.3512	21.763	642	448.25	-61.421	554.93	466.18	-91.416	1347.2	424.16	162.48	697.25	137.27	-161.07	1125.2	133.91	-87.28	452.15	446.98	-84.677	356.91	360.72	-150.12	178.31	352.51	140.61	583.44	128.78	-25.924	739.16	494.88	-42.245	645.3	484.45	-91.963	36.827	307.32	-117.69	32.38	397.85	-152.82	1125.4	54.526	-121.89	265.6	431.12	98.823	661.67	109.9	-7.0932	1427.4	142.71	-114.61	268.77	358.28	-53.26	868.71	35.229	-132.97	865.32	14.762	-210.93	103.59	305.86	104.99	1355.2	295.33	52.742	944	147.79	-121.52	959.57	240.88	239.39	402.33	200.75	13.178	1579.7	244.18	-126.04	965.49	345.42	172.79	475.82	148.93	-129.03	1133.4	302.76	261.52	927.08	549.74	197.38	1591.4	267.73	260	218.02	214.02	-69.612	816.15	-11.13	54.467	749.28	104.35	247.8	309.86	207.95	198.93	1596.9	348.99	385.12	76.91	255.74	185.81	34.532	252.67	-34.918	24.299	326.28	253.72	110.21	277.75	5.2723	1045.4	518.8	354.72	60.005	179.45	-232.76	90.884	394.23	215	81.971	199.35	210.43	300.89	146.63	420.36	91.909	230.16	-95.184	1244.4	59.406	-293.39	49.568	355.31
332	1.66	20.072	1577.9	382.56	-17.768	1440	320.05	57.612	939.87	454.25	55.807	1394.8	459.3	44.336	1214.2	559.01	35.346	1086.8	606.87	153.61	989.08	609.45	222.41	882.62	589.4	289.8	870.47	586.66	-93.834	979.02	6.3963	26.11	640.99	448.24	-57.664	554.61	466.11	-84.574	1346.5	423.85	168.62	695.29	137.76	-154.72	1124.3	134.21	-84.511	452.02	446.97	-82.456	356.43	360.67	-148.96	178.45	352.57	145.79	581.61	129.01	-20.895	738.64	494.78	-37.928	645.02	484.42	-91.914	36.8	307.29	-117.77	32.459	397.86	-146.65	1124.5	54.932	-120.35	265.65	431.13	104.44	660.04	110.05	-0.28835	1426.2	142.29	-112.74	268.69	358.09	-49.54	866.99	34.857	-129.34	864.32	15.102	-210.34	104.37	305.35	111.8	1354.2	295.05	59.778	942.79	147.75	-114.19	958.62	240.35	246.46	402.61	201.37	19.724	1578.5	243.63	-119.68	964.37	344.72	177.93	473.92	149.78	-122.55	1132.4	302.31	270.74	929.37	549.24	204.03	1590.6	266.84	273.34	219.21	213.74	-66.845	814.78	-11.354	60.65	747.85	104.35	258.15	310.41	208.21	205.44	1596.1	348.14	403.11	80.011	256.31	204.35	33.823	250.84	-34.91	24.233	326.2	270.36	110.9	276.95	12.854	1044.7	519.11	373.58	63.224	179.23	-232.24	91.493	394.35	233.09	81.903	198.24	221.15	300.56	146.7	438.34	95.861	231.04	-88.482	1243.2	59.183	-293.26	50.651	355.01
